<svg height="14" viewBox="0 0 14 14" width="14" xmlns="http://www.w3.org/2000/svg"><g fill="none" fill-rule="evenodd" stroke="#a7adbd"><rect height="13.222222" rx="6.611111" stroke-width=".777778" width="13.222222" x=".388889" y=".388889"/><path d="m.21428571 1.5c-.11834673 0-.21428571-.09593898-.21428571-.21428571 0-.11834674.09593898-.21428572.21428571-.21428572h5.57142858c.11834673 0 .21428571.09593898.21428571.21428572 0 .11834673-.09593898.21428571-.21428571.21428571zm4.92857143 0h.42857143v3.68421053c0 .72669046-.47969491 1.31578947-1.07142857 1.31578947h-3c-.59173366 0-1.07142857-.58909901-1.07142857-1.31578947v-3.68421053h.42857143v.78947368h-.42857143v-.78947368h.42857143v3.68421053c0 .43601427.28781694.78947368.64285714.78947368h3c.3550402 0 .64285714-.35345941.64285714-.78947368zm-3.42857143.80238095c0-.14727593.09593899-.26666666.21428572-.26666666s.21428571.11939073.21428571.26666666v2.66666667c0 .14727593-.09593898.26666667-.21428571.26666667s-.21428572-.11939074-.21428572-.26666667zm2.14285715 0c0-.14727593.09593898-.26666666.21428571-.26666666s.21428572.11939073.21428572.26666666v2.66666667c0 .14727593-.09593899.26666667-.21428572.26666667s-.21428571-.11939074-.21428571-.26666667zm-2.35714286-1.23095238h-.42857143v-.42857143c0-.35504019.28781695-.64285714.64285714-.64285714h2.57142858c.35504019 0 .64285714.28781695.64285714.64285714v.42857143h-.42857143v-.21428571h.42857143v.21428571h-.42857143v-.42857143c0-.11834673-.09593898-.21428571-.21428571-.21428571h-2.57142858c-.11834673 0-.21428571.09593898-.21428571.21428571z" fill="#a7adbd" fill-rule="nonzero" stroke-width=".2" transform="translate(4 4)"/></g></svg>