<svg height="14" viewBox="0 0 14 14" width="14" xmlns="http://www.w3.org/2000/svg"><g fill="none" fill-rule="evenodd"><rect height="13.222222" rx="6.611111" stroke="#3453f4" stroke-width=".777778" width="13.222222" x=".388889" y=".388889"/><path d="m5.70345298 5h-.43407151c-.14877204 0-.26938147.12056831-.26938147.26928962v4.12808743c0 .14872131.12060943.26928962.26938147.26928962h.43407151c.14877204 0 .26938147-.12056831.26938147-.26928962v-4.12808743c0-.14872131-.12060943-.26928962-.26938147-.26928962zm3.13827666 0h-.43407151c-.14877204 0-.26938147.12056831-.26938147.26928962v4.12808743c0 .14872131.12060943.26928962.26938147.26928962h.43407151c.14877204 0 .26938147-.12056831.26938147-.26928962v-4.12808743c0-.14872131-.12060943-.26928962-.26938147-.26928962z" fill="#3453f4" fill-rule="nonzero"/></g></svg>