<svg height="14" viewBox="0 0 14 14" width="14" xmlns="http://www.w3.org/2000/svg"><g fill="#fff" transform="translate(1 1)"><path d="m10.0812063 9.26543706c-.35037254 0-.6344056-.28403306-.6344056-.63440559 0-.35037254.28403306-.6344056.6344056-.6344056.3387861 0 .6134266-.27464043.6134266-.61342657v-5.49818182c0-.33878614-.2746405-.61342657-.6134266-.61342657h-5.49818182c-.33878615 0-.61342658.27464043-.61342658.61342657 0 .35037254-.28403306.6344056-.63440559.6344056-.35037254 0-.6344056-.28403306-.6344056-.6344056.00230744-1.03857394.84366383-1.87993032 1.88223777-1.88223776h5.49818182c1.0385739.00230744 1.8799303.84366382 1.8822378 1.88223776v5.49818182c-.0023075 1.03857394-.8436639 1.87993033-1.8822378 1.88223776z"/><path d="m7.26833916 12.0153687h-5.26573426c-.52744784.0006676-1.03348522-.2085639-1.40644746-.5815261-.37296224-.3729623-.58219378-.8789997-.58152742-1.4064475v-5.28671328c-.00088954-.52759313.20824348-1.03384641.58122996-1.40699034.37298649-.37314393.87915145-.58249057 1.40674492-.58182245h5.26573426c.52744783-.00066761 1.03348521.20856393 1.40644745.58152617s.58219379.87899962.58152458 1.40644746v5.28671324c.02097902 1.1001399-.88783217 1.9888128-1.98797203 1.9888128zm-5.26573426-7.99471131c-.1912137-.00155687-.37505527.07370376-.51026839.20891688s-.21047375.31905469-.20891688.51026839v5.28671324c-.00155687.1912137.07370376.3750553.20891688.5102684.13521312.1352132.31905469.2104738.51026839.2089169h5.26573426c.19121369.0015569.37505527-.0737037.51026839-.2089169.13521312-.1352131.21047374-.3190547.20891687-.5102684v-5.28671324c.00155687-.1912137-.07370375-.37505527-.20891687-.51026839s-.3190547-.21047375-.51026839-.20891688z"/></g></svg>