<?xml version="1.0" encoding="UTF-8"?>
<svg width="34px" height="34px" viewBox="0 0 34 34" version="1.1" xmlns="http://www.w3.org/2000/svg" xmlns:xlink="http://www.w3.org/1999/xlink">
    <title>logo</title>
    <defs>
        <filter id="filter-1">
            <feColorMatrix in="SourceGraphic" type="matrix" values="0 0 0 0 1.000000 0 0 0 0 1.000000 0 0 0 0 1.000000 0 0 0 1.000000 0"></feColorMatrix>
        </filter>
    </defs>
    <g id="上传" stroke="none" stroke-width="1" fill="none" fill-rule="evenodd">
        <g id="切图2" transform="translate(-522.000000, -44.000000)">
            <g id="logo" transform="translate(522.000000, 44.000000)">
                <rect id="矩形" stroke-opacity="0.570913462" stroke="#FFFFFF" stroke-width="0.5" x="0.25" y="0.25" width="33.5" height="33.5" rx="5.1"></rect>
                <g filter="url(#filter-1)" id="编组-4备份">
                    <g transform="translate(5.250000, 8.500000)">
                        <path d="M10.1206282,11.0940937 C10.3184268,11.0228117 10.508938,10.9252124 10.6920661,10.8012897 C10.8748577,10.6773461 11.0239912,10.5357951 11.1395493,10.376642 C11.2548812,10.2174747 11.3100519,10.0528267 11.305354,9.8827161 C11.303438,9.81158198 11.2851267,9.75036538 11.250437,9.69906736 C11.2157988,9.64777255 11.1696252,9.60930674 11.1119061,9.58366929 C11.0295517,9.72610074 10.9385045,9.8420296 10.8387631,9.93145581 C10.7388943,10.0208741 10.6225247,10.0897621 10.4896777,10.1381213 C10.2268656,10.2336708 10.0343765,10.2118397 9.91284205,10.0726674 C9.79177596,9.93352437 9.72956551,9.68631163 9.72639742,9.33104087 C9.72447731,9.06230054 9.7411659,8.8209294 9.77623163,8.60691301 C9.81139913,8.39290296 9.89454722,8.26166475 10.0255278,8.21318915 C10.1439517,8.16932512 10.2198149,8.19229633 10.253258,8.28211152 C10.2868099,8.3719335 10.3044355,8.50643766 10.3061898,8.68562746 C10.3070355,8.76595761 10.3017405,8.85632113 10.2903008,8.95671776 C10.3969304,8.92368806 10.4784141,8.89679192 10.5347776,8.87603093 C10.7319113,8.80335885 10.8967155,8.68966819 11.0291471,8.53495624 C11.161306,8.38022729 11.2256088,8.20703664 11.2224166,8.0154068 C11.2189711,7.79288525 11.1084385,7.67804385 10.8906822,7.67087324 C10.6730251,7.66371053 10.4107746,7.71731984 10.1034577,7.83167252 C9.54645427,8.03834724 9.12070535,8.33294982 8.8264772,8.71549688 C8.53086615,9.0979577 8.3810567,9.56231512 8.37935798,10.1087132 C8.37915281,10.4143721 8.44250118,10.6657104 8.56956811,10.8627384 C8.69738336,11.0598131 8.89275784,11.1818337 9.15539164,11.2287816 C9.41837385,11.2757512 9.7403985,11.2308726 10.1206282,11.0940937 Z M12.7687667,9.99143657 L12.6652183,7.01995731 L11.4682011,7.46436966 L11.5407546,10.4339418 L12.7687667,9.99143657 Z M14.3111896,9.335771 L14.1754389,6.68071561 C14.218141,6.64660332 14.2643235,6.62045776 14.3139928,6.60227931 C14.4474087,6.55342053 14.5366885,6.57471827 14.5820088,6.66618312 C14.6274622,6.75765594 14.6547948,6.8959852 14.664061,7.08117416 C14.6704049,7.20565237 14.6676594,7.306407 14.6557621,7.38343433 C14.6438747,7.46046224 14.6124365,7.52911775 14.5614074,7.58939845 C14.5103347,7.64967654 14.4315284,7.69910045 14.3249732,7.73766928 C14.3388576,8.00788486 14.5424733,8.072142 14.9348426,7.93038213 C15.1260048,7.8611845 15.2934765,7.76090049 15.4371965,7.62952643 C15.5806288,7.49813514 15.6890171,7.34598884 15.7624864,7.17309502 C15.8358347,7.00019395 15.8666939,6.82107815 15.8553093,6.6357623 C15.8340498,6.28035495 15.682088,6.08600359 15.3990956,6.05268854 C15.1164232,6.01939266 14.74388,6.0880531 14.280292,6.25859952 C13.8744062,6.40748236 13.42498,6.59950763 12.9313374,6.83463485 L13.0480096,9.78365908 L14.3111896,9.335771 Z M17.589442,8.1995795 L17.483236,6.89017132 L17.9613317,6.71057979 L18.073056,8.02032444 L19.2715943,7.57351605 L18.9999344,4.58139693 L17.8327829,5.03011912 L17.928611,6.30282719 L17.4522337,6.4825235 L17.3617712,5.21014259 L16.1827512,5.65814111 L16.3790351,8.64566423 L17.589442,8.1995795 Z M21.547584,6.61496393 L21.5347087,6.19369354 L20.746037,6.48643173 L20.6416052,5.54824175 L21.2182709,5.33227501 L21.1719778,4.9203603 L20.5974271,5.13645264 L20.5088929,4.28103987 L21.2145063,4.01315639 L21.1713253,3.60597278 L19.2715943,4.32719738 L19.5638176,7.34509869 L21.547584,6.61496393 Z M22.9203891,6.08346693 L22.5848823,3.4328438 C22.6238619,3.39873083 22.6668396,3.3725672 22.7138218,3.35435329 C22.8165461,3.31450742 22.8877,3.33765586 22.92741,3.42380619 C22.9672211,3.50996257 22.9980526,3.64092824 23.0199675,3.81670699 C23.0390085,3.96824929 23.0493035,4.08030206 23.0507637,4.15285997 C23.0522434,4.22541905 23.0362068,4.29438122 23.0026157,4.35974421 C22.9689931,4.42510532 22.9062076,4.47540309 22.8142429,4.51063654 C22.8188355,4.54700805 22.8280821,4.58319096 22.8419879,4.61918558 C22.855909,4.65518111 22.8711379,4.68909383 22.8876744,4.72092373 L23.443403,5.88611305 L24.6364272,5.43318347 L23.7887931,4.466351 C23.9321285,4.33139443 24.0355704,4.17414648 24.0992586,3.9946155 C24.1628056,3.81507609 24.1807919,3.6252155 24.153503,3.42505084 C24.1187121,3.16728417 24.0339797,2.99221973 23.8992498,2.89985417 C23.7648433,2.80750794 23.5955669,2.77508906 23.3911357,2.80258049 C23.186648,2.83006854 22.9412988,2.89963915 22.6547334,3.01127113 C22.2708448,3.16044403 21.8478291,3.35274532 21.3850133,3.58813477 L21.7238609,6.53224523 L22.9203891,6.08346693 Z M10.3417981,15.4295399 C10.7874347,15.2833075 11.1595537,15.0911756 11.458105,14.8531412 C11.7555896,14.615043 11.8940186,14.3404838 11.8746512,14.0295392 C11.8484309,13.5919755 11.5498951,13.425222 10.9775346,13.5291884 C11.1505431,13.4390798 11.2882244,13.3248749 11.3906267,13.1865765 C11.4928465,13.0482673 11.5401015,12.9057381 11.5326309,12.7590034 C11.5193597,12.4914493 11.3968472,12.3495444 11.1648626,12.3332747 C10.9330244,12.3170138 10.6221402,12.374896 10.2314947,12.5068787 C9.7957949,12.6537058 9.33751291,12.8294647 8.85623151,13.0341305 L8.94772033,15.8276761 C9.43367647,15.7073636 9.89840163,15.5746535 10.3417981,15.4295399 Z M10.2377696,13.7501368 C10.2144979,13.7576561 10.1893717,13.76135 10.1623935,13.761222 L10.1278956,12.9063558 C10.1767473,12.8727788 10.2259074,12.8479223 10.2753855,12.831787 C10.3940828,12.7930592 10.477029,12.8005971 10.5243312,12.854407 C10.5717052,12.9082211 10.59816,12.9991082 10.6037213,13.12707 C10.6103001,13.275397 10.5859193,13.4050477 10.5304307,13.5160136 C10.4748865,13.6269762 10.3773431,13.7050179 10.2377696,13.7501368 Z M10.3080184,15.0123993 C10.2550841,15.0303047 10.2110562,15.0364729 10.1759501,15.0309048 L10.1278956,13.9804887 L10.2110457,13.9477185 C10.3529339,13.8991857 10.451468,13.9148008 10.5068252,13.9945747 C10.5623116,14.0743565 10.5942504,14.2000124 10.6026816,14.371545 C10.6107155,14.5316522 10.5955734,14.6676948 10.5571187,14.7796645 C10.5186411,14.8916327 10.4356232,14.9692119 10.3080184,15.0123993 Z M13.588464,14.2755889 C13.9229594,14.1595116 14.2042993,13.9949153 14.4323846,13.7817938 C14.6597402,13.5686271 14.8257204,13.3211101 14.9306824,13.0392649 C15.0353911,12.7574041 15.0740983,12.4575353 15.0474502,12.1396986 C15.0073359,11.6469806 14.8463098,11.3225717 14.5641222,11.1664564 C14.2830634,11.0104112 13.8871799,11.0242365 13.3745155,11.2078109 C12.8634002,11.3902145 12.480155,11.6629917 12.2249736,12.0261546 C11.9685886,12.3892428 11.8530395,12.8195865 11.8803516,13.3173113 C11.8975251,13.6171553 11.9790061,13.8585322 12.1249342,14.0414506 C12.2715918,14.2244143 12.471516,14.3371144 12.7243848,14.3795309 C12.9775533,14.4219661 13.265793,14.387332 13.588464,14.2755889 Z M13.7188593,14.0686103 C13.592557,14.1125861 13.501592,14.0187908 13.4463869,13.7872506 C13.3916642,13.5557405 13.3517015,13.256659 13.3267162,12.8900197 C13.3023045,12.5203737 13.3007101,12.2155725 13.3214649,11.9755872 C13.3423806,11.7356118 13.4163903,11.5929967 13.5433091,11.5477303 C13.6701422,11.5024587 13.7573954,11.5861355 13.8054379,11.7987838 C13.8538868,12.0114573 13.8912658,12.3057184 13.9178783,12.681586 C13.9448495,13.0513912 13.950097,13.3640254 13.9331771,13.6194611 C13.9164505,13.8749088 13.84508,14.0246295 13.7188593,14.0686103 Z M16.0582338,13.3178504 L16.2084417,12.3153383 L16.689126,13.0991666 L17.9168381,12.6710663 L17.077341,11.464495 L17.6311029,9.78727176 L16.8353979,10.0734297 L16.690708,11.02921 L16.2622159,10.2786148 L15.0555939,10.7080007 L15.8196211,11.8626053 L15.2339141,13.602264 L16.0582338,13.3178504 Z" id="CIPHERBOX" fill="#000000" fill-rule="nonzero" transform="translate(16.507892, 9.310398) rotate(-1.000000) translate(-16.507892, -9.310398) "></path>
                        <g id="编组-2">
                            <polygon id="路径-6" stroke="#000000" stroke-width="0.708333333" stroke-linejoin="round" points="0 2.71243674 0 13.4388047 7.33145723 17.2813282 7.26355894 6.00688902"></polygon>
                            <line x1="7.26355894" y1="6.00688902" x2="22.6553011" y2="-6.61543547e-15" id="路径-7" stroke="#000000" stroke-width="0.708333333" stroke-linecap="round" stroke-linejoin="round"></line>
                            <polygon id="路径-8" fill="#000000" points="0 12.8617699 7.33145723 9.89525632 7.33145723 17.2813282 0 13.4388047"></polygon>
                        </g>
                    </g>
                </g>
            </g>
        </g>
    </g>
</svg>