<svg height="26" viewBox="0 0 30 26" width="30" xmlns="http://www.w3.org/2000/svg" xmlns:xlink="http://www.w3.org/1999/xlink"><defs><linearGradient id="a" x1="17.447006%" x2="100%" y1="34.970838%" y2="85.545143%"><stop offset="0" stop-color="#3157f6"/><stop offset="1" stop-color="#5943f6"/></linearGradient><rect id="b" height="24" rx="11.6" width="24"/><filter id="c" height="125%" width="125%" x="-12.5%" y="-12.5%"><feGaussianBlur in="SourceAlpha" result="shadowBlurInner1" stdDeviation="2"/><feOffset dx="2" dy="0" in="shadowBlurInner1" result="shadowOffsetInner1"/><feComposite in="shadowOffsetInner1" in2="SourceAlpha" k2="-1" k3="1" operator="arithmetic" result="shadowInnerInner1"/><feColorMatrix in="shadowInnerInner1" type="matrix" values="0 0 0 0 0.482240854   0 0 0 0 0.73769774   0 0 0 0 1  0 0 0 1 0"/></filter><filter id="d" height="333.3%" width="261.5%" x="-80.8%" y="-116.7%"><feOffset dx="0" dy="2" in="SourceAlpha" result="shadowOffsetOuter1"/><feGaussianBlur in="shadowOffsetOuter1" result="shadowBlurOuter1" stdDeviation="1.5"/><feColorMatrix in="shadowBlurOuter1" result="shadowMatrixOuter1" type="matrix" values="0 0 0 0 0   0 0 0 0 0.0809905654   0 0 0 0 0.481034873  0 0 0 0.51 0"/><feMerge><feMergeNode in="shadowMatrixOuter1"/><feMergeNode in="SourceGraphic"/></feMerge></filter></defs><g fill="none" fill-rule="evenodd" transform="translate(3 1)"><use fill="url(#a)" fill-rule="evenodd" xlink:href="#b"/><use fill="#000" filter="url(#c)" xlink:href="#b"/><g fill-rule="nonzero" filter="url(#d)" transform="translate(5.538462 7.384615)"><path d="m6.09022335 6.09022335v2.43603057h-3.65419279c-1.34541536 0-2.43603056-1.09061521-2.43603056-2.43603057s1.0906152-2.4361775 2.43603056-2.4361775 2.43617751 1.09076214 2.43617751 2.4361775z" fill="#d2d2d2"/><path d="m10.6578174 4.26312696c0 1.38112265-.6566908 2.60868926-1.67486285 3.38778409v.87534287h-2.58826411c-2.35447688 0-4.26312696-1.90865008-4.26312696-4.26312696s1.90865008-4.26312696 4.26312696-4.26312696 4.26312696 1.90865008 4.26312696 4.26312696z" fill="#e9e9e9"/><path d="m5.93798981 5.17667516c0 1.84992127 1.4996575 3.34957876 3.34957876 3.34957876 1.84992123 0 3.34957873-1.49965749 3.34957873-3.34957876s-1.4996575-3.34957877-3.34957873-3.34957877c-1.84992126 0-3.34957876 1.4996575-3.34957876 3.34957877z" fill="#fff"/></g></g></svg>