<svg height="14" viewBox="0 0 14 14" width="14" xmlns="http://www.w3.org/2000/svg"><path d="m12.8765165 13.2610625-2.4641161-2.5306094c1.1170901-1.13793748 1.8104123-2.7141406 1.8104123-4.45407809 0-3.46062501-2.74165799-6.27637501-6.11124657-6.27637501-3.36980159 0-6.11156613 2.81575-6.11156613 6.27648437 0 3.46095312 2.74176454 6.27626563 6.11156613 6.27626563 1.37226678 0 2.64037549-.4671406 3.66150811-1.2545312l2.50735556 2.5750156c.0823254.0845468.1901045.1267656.2979901.1267656.1078857 0 .2156648-.0422188.2980966-.1267656.0790637-.0811694.1234835-.1912755.1234835-.306086s-.0444198-.2249165-.1234835-.3060859zm-12.03356022-6.98457813c0-2.98353125 2.36347261-5.41067187 5.26860985-5.41067187 2.90492423 0 5.26829037 2.42714062 5.26829037 5.41067187 0 2.98320312-2.36336614 5.41056253-5.26829037 5.41056253-2.90513724 0-5.26860985-2.4273594-5.26860985-5.41056253z" fill="#cbced8"/></svg>