<svg height="14" viewBox="0 0 14 14" width="14" xmlns="http://www.w3.org/2000/svg" xmlns:xlink="http://www.w3.org/1999/xlink"><filter id="a"><feColorMatrix in="SourceGraphic" type="matrix" values="0 0 0 0 1.000000 0 0 0 0 1.000000 0 0 0 0 1.000000 0 0 0 1.000000 0"/></filter><g fill="none" fill-rule="evenodd" filter="url(#a)"><g fill="#131414" fill-rule="nonzero" transform="translate(1 2)"><path d="m10.1414536 4.09712358h-9.42234849c-.39210464 0-.71022727-.31812263-.71022727-.71022727s.31812263-.71022728.71022727-.71022728h9.42234849c.3921046 0 .7102273.31812264.7102273.71022728s-.3181227.71022727-.7102273.71022727z"/><path d="m.71910511 4.09712358c-.18199573 0-.36399147-.06954309-.50159801-.20862926-.27817235-.27817235-.27817235-.72650332 0-1.00467566l2.66187263-2.66187264c.27817235-.27817235.72650332-.27817235 1.00467567 0s.27817235.72650332 0 1.00467567l-2.66335227 2.66335227c-.13760654.13908617-.31960228.20714962-.50159802.20714962zm9.42234849 3.02142519h-9.42234849c-.39210464 0-.71022727-.31812263-.71022727-.71022727s.31812263-.71022728.71022727-.71022728h9.42234849c.3921046 0 .7102273.31812264.7102273.71022728s-.3181227.71022727-.7102273.71022727z"/><path d="m7.47958097 9.77894176c-.18199574 0-.36399148-.06954309-.50159802-.20862926-.27817234-.27817235-.27817234-.72798295 0-1.00467566l2.66187264-2.66187264c.27817235-.27817234.72650331-.27817234 1.00467561 0 .2781724.27817235.2781724.72798296 0 1.00467567l-2.66335222 2.66335227c-.13908618.13908617-.31960228.20714962-.50159801.20714962z"/></g></g></svg>