<svg height="70" viewBox="0 0 70 70" width="70" xmlns="http://www.w3.org/2000/svg" xmlns:xlink="http://www.w3.org/1999/xlink"><defs><linearGradient id="a" x1="17.447006%" x2="100%" y1="34.970838%" y2="85.545143%"><stop offset="0" stop-color="#3157f6"/><stop offset="1" stop-color="#5943f6"/></linearGradient><rect id="b" height="70" rx="35" width="70"/><filter id="c" height="111.4%" width="111.4%" x="-5.7%" y="-5.7%"><feGaussianBlur in="SourceAlpha" result="shadowBlurInner1" stdDeviation="3"/><feOffset dx="2" dy="0" in="shadowBlurInner1" result="shadowOffsetInner1"/><feComposite in="shadowOffsetInner1" in2="SourceAlpha" k2="-1" k3="1" operator="arithmetic" result="shadowInnerInner1"/><feColorMatrix in="shadowInnerInner1" type="matrix" values="0 0 0 0 0.482240854   0 0 0 0 0.73769774   0 0 0 0 1  0 0 0 1 0"/></filter><filter id="d" height="193.1%" width="175%" x="-37.5%" y="-46.6%"><feOffset dx="0" dy="2" in="SourceAlpha" result="shadowOffsetOuter1"/><feGaussianBlur in="shadowOffsetOuter1" result="shadowBlurOuter1" stdDeviation="2.5"/><feColorMatrix in="shadowBlurOuter1" result="shadowMatrixOuter1" type="matrix" values="0 0 0 0 0   0 0 0 0 0.0809905654   0 0 0 0 0.481034873  0 0 0 0.51 0"/><feMerge><feMergeNode in="shadowMatrixOuter1"/><feMergeNode in="SourceGraphic"/></feMerge></filter><linearGradient id="e" x1="50%" x2="50%" y1="0%" y2="100%"><stop offset="0" stop-color="#fff" stop-opacity=".7"/><stop offset="1" stop-color="#fff"/></linearGradient></defs><g fill="none" fill-rule="evenodd"><use fill="url(#a)" fill-rule="evenodd" xlink:href="#b"/><use fill="#000" filter="url(#c)" xlink:href="#b"/><g fill="url(#e)" fill-rule="nonzero" filter="url(#d)" transform="translate(17.816092 20.310345)"><path d="m31.126044 7.59183673c.5107036.05442177 1.0214073.1904762 1.5321109.40816327.5107037.21768707.9542095.52380952 1.3305175.91836735.3763079.39455782.6585389.89115646.8466929 1.48979595.1881539.5986394.2150331 1.3197279.0806374 2.1632653-.0537583.217687-.1612749.755102-.3225497 1.6122449-.1612748.8571428-.3494288 1.8435374-.5644619 2.9591836-.2150331 1.1156463-.4569454 2.2653062-.7257368 3.4489796-.2687914 1.1836735-.5241432 2.1972789-.7660555 3.0408164-.1343957.4897959-.3292695.9931972-.5846213 1.510204s-.5846213.9863946-.9878084 1.4081633-.8870116.7687075-1.4514735 1.0408163c-.564462.2721089-1.2364405.4081633-2.0159355.4081633h-22.33656525c-.56446193 0-1.14908322-.122449-1.75386387-.3673469-.60478065-.244898-1.1625228-.5918368-1.67322646-1.0408164s-.92733032-.9931972-1.24988-1.632653-.48382452-1.3537415-.48382452-2.1428572v-17.51020405c0-1.65986395.44350581-2.95918367 1.33051742-3.89795918.88701162-.93877551 2.13689162-1.40816327 3.74964001-1.40816327h19.83680527c.591341 0 1.2028415.11564626 1.8345013.34693878.6316597.23129251 1.2028415.5510204 1.7135451.95918367.5107037.40816326.9273303.88435374 1.24988 1.42857143.3225497.54421768.4838245 1.1292517.4838245 1.75510204v.44897959h-2.0965729c-1.0751656 0-2.3317654-.00680272-3.7697993-.02040816-1.438034-.01360545-2.970145-.02040817-4.596333-.02040817-1.6261879 0-3.1448593-.00680272-4.5560142-.02040816-1.4111548-.01360544-2.6274359-.02040816-3.6488432-.02040816h-1.85466065c-.69885763 0-1.24316022.22448979-1.63290774.67346938-.38974753.4489796-.69213786 1.04081633-.90717098 1.77551021-.21503311.78911565-.45694537 1.62585034-.72573677 2.51020408-.2687914.88435377-.51070366 1.70748297-.72573678 2.46938777-.2687914.8979592-.5375828 1.7687075-.80637419 2.6122449-.05375828.2176871-.08063742.3945578-.08063742.5306122 0 .4625851.15455505.8503402.46366516 1.1632653.30911011.3129252.69213785.4693878 1.14908323.4693878.83325333 0 1.39771527-.5306123 1.69338581-1.5918367l2.13689163-7.91836739c3.4942882.02721088 6.6929058.04081632 9.5958529.04081632z" transform="translate(.850575 .689655)"/></g></g></svg>