<svg height="10" viewBox="0 0 10 10" width="10" xmlns="http://www.w3.org/2000/svg"><path d="m5.08742754 4.53351449 3.85101449-3.85101449c.15826087-.15826087.15826087-.40884058 0-.55391304-.15826087-.15826087-.40884058-.15826087-.55391304 0l-3.8510145 3.85101449-3.85101449-3.85101449c-.15826087-.15826087-.40884058-.15826087-.55391304 0-.15826087.15826087-.15826087.40884058 0 .55391304l3.85101449 3.85101449-3.85101449 3.8510145c-.15826087.15826087-.15826087.40884058 0 .55391304.07913043.07913043.18463768.11869565.27695652.11869565s.19782609-.03956522.27695652-.11869565l3.85101449-3.85101449 3.8510145 3.85101449c.07913043.07913043.18463768.11869565.27695652.11869565s.19782608-.03956522.27695652-.11869565c.15826087-.15826087.15826087-.40884058 0-.55391304z" fill="#caced7"/></svg>