<svg height="28" viewBox="0 0 38 28" width="38" xmlns="http://www.w3.org/2000/svg"><g fill="none" fill-rule="evenodd" transform="translate(1 1)"><path d="m15.0734031 16.5232575c.2945961-.1061656.5783387-.2515275.8510849-.4360947.2722451-.1845985.4943606-.3954208.6664699-.6324594.1717724-.2370596.2539422-.4822822.2469452-.7356405-.0028535-.1059453-.0301259-.1971197-.0817918-.2735217-.0515893-.0763972-.1203591-.1336871-.2063244-.1718709-.1226566.2121337-.25826.3847952-.4068122.5179843-.1487419.1331772-.32206.2357773-.5199187.3078022-.3914257.142309-.678114.1097943-.8591243-.0974853-.1803127-.2072361-.2729673-.5754283-.2776858-1.1045595-.0028598-.4002549.0219958-.7597469.0742218-1.0784974.0523776-.318741.1762162-.5142038.3712953-.5864021.1763774-.06533.2893662-.0311173.3391755.1026512.0499714.1337785.0762224.3341055.0788352.6009862.0012596.1196417-.0066267.2542268-.0236646.4037549.1588113-.0491936.2801711-.089252.3641174-.1201729.2936059-.1082359.539061-.2775638.7363012-.5079878.196834-.2304493.2926051-.488395.2878506-.7738036-.0051316-.3314179-.169756-.5024597-.4940766-.5131394-.3241729-.0106679-.714762.0691764-1.1724719.2394903-.8295866.307816-1.4636861.7465895-1.9019019 1.3163453-.4402755.5696273-.6633978 1.2612292-.6659279 2.0750205-.0003055.4552404.0940439.8295772.2832941 1.1230257.1903648.293518.4813505.4752524.8725105.5451753.3916789.0699553.8712942.0031143 1.4375985-.2006007zm3.9440692-1.6422691-.1542222-4.4256447-1.7828066.6618963.1080593 4.4228043zm2.297245-.9765314-.2021836-3.95437118c.0635995-.05080596.1323825-.08974648.2063586-.116821.1987063-.07276902.3316773-.04104871.3991762.09517668.0676971.1362373.1084055.3422613.1222064.618077.0094485.1853946.0053594.335456-.0123601.4501785-.0177048.1147234-.064528.2169771-.1405295.3067577-.0760664.0897766-.1934385.1633873-.3521391.2208307.0206791.4024521.3239391.4981551.9083238.2870216.2847121-.1030612.5341402-.2524216.7481931-.4480868.2136243-.1956908.3750551-.4222936.4844783-.6797972.1092431-.2575144.155204-.5242848.1382481-.80028948-.0316634-.52933455-.2579913-.81879647-.6794729-.86841504-.4210051-.04959003-.9758613.05267106-1.6663174.3066785-.6045158.22174228-1.2738796.50773978-2.0090983.85793222l.1737686 4.3922007zm4.8825447-1.6922144-.1581804-1.9501988.7120635-.26747903.1663991 1.95069993 1.7850722-.6654649-.4046033-4.45638517-1.7383254.66831527.1427239 1.89553863-.709504.26763507-.1347326-1.89505137-1.756002.66723746.2923402 4.44954001zm5.8951549-2.36008564-.0191762-.62742927-1.1746273.43599673-.155538-1.397316.858871-.3216553-.0689478-.61349517-.855721.32184237-.1318605-1.27402976 1.0509223-.39897876-.0643126-.60644878-2.8294104 1.07417335.4352298 4.49478453zm2.0446205-.79159794-.4996953-3.94776985c.0580553-.05080698.1220653-.08977442.1920393-.11690175.152995-.05934541.2589697-.02486871.3181128.10344137.0592936.12831909.1052132.32337599.1378527.58517634.0283591.2257032.0436923.3925917.0458671.50065759.0022038.10806762-.0216807.21077811-.0717105.30812806-.0500765.09734716-.1435877.17225935-.2805574.22473515.0068401.05417079.0206116.10806068.0413226.16167014.0207337.05361082.0434153.10411955.0680443.15152618l.8276879 1.73540298 1.7768594-.67458166-1.2624443-1.43997538c.21348-.20100084.3675438-.43520189.4623992-.70259071.0946454-.26740138.1214336-.55017484.0807904-.84829494-.0518168-.38391105-.178015-.64464752-.3786782-.7822144-.2001817-.13753809-.4522976-.18582194-.7567721-.14487692-.3045588.04094-.6699755.14455668-1.0967786.31081847-.5717539.22217427-1.2017825.50858287-1.8910884.85916585l.5046708 4.38488233zm-18.7342295 13.91980048c.6637197-.2177948 1.2179441-.5039512 1.6625987-.8584734.443066-.3546174.6492384-.7635387.6203931-1.2266516-.0390517-.6516962-.4836833-.9000545-1.3361423-.7452097.2576744-.1342054.4627334-.3042992.6152487-.5102772.1522436-.2059943.2226239-.4182735.2114974-.6368165-.0197658-.3984881-.2022327-.6098377-.5477445-.6340693-.345294-.0242186-.8083169.0619898-1.3901342.2585613-.6489201.2186805-1.3314735.4804513-2.0482816.7852753l.1362611 4.1606349c.7237706-.1791903 1.4159202-.3768454 2.0763036-.5929738zm-.1549375-2.5012597c-.0346602.011199-.0720826.0167006-.1122632.01651l-.0513803-1.2732157c.0727585-.0500088.1459763-.0870294.2196678-.111061.1767846-.0576801.3003225-.0464533.3707732.0336898.0705577.0801492.1099588.2155142.1182417.4060972.0097981.2209144-.0265139.4140129-.1091573.5792825-.082726.1652649-.2280047.2814982-.4358819.3486972zm.1046268 1.8799812c-.078839.0266679-.144413.0358546-.1966992.0275617l-.0715711-1.5644628.1238416-.048807c.2113247-.0722835.3580788-.0490269.4405264.0697863.08264.118825.1302089.3059737.1427662.5614499.0119654.2384596-.0105869.441078-.0678604.6078427-.0573075.1667625-.1809521.2823071-.3710035.3466292zm4.8858112-1.0973865c.4981888-.1728825.9172093-.418028 1.2569136-.7354456.3386177-.3174851.5858243-.6861306.7421519-1.1059034.1559505-.4197963.2136001-.8664132.173911-1.339791-.0597452-.7338415-.2995733-1.2170078-.7198563-1.4495218-.4186017-.2324097-1.0082204-.2118186-1.7717696.0615924-.7612419.2716671-1.3320375.6779344-1.7120981 1.2188199-.3818532.5407743-.5539491 1.1817171-.5132711 1.9230156.0255778.44658.1469335.8060805.3642751 1.0785144.2184279.2725014.51619.4403541.8928062.5035282.3770626.0632018.8063595.0116186 1.2869373-.1548087zm.1942074-.3082685c-.1881113.0654964-.3235924-.0742-.4058133-.4190499-.0815027-.3448052-.141022-.7902495-.1782345-1.3363126-.0363582-.5505413-.0387329-1.0045043-.0078211-1.3619323.0311512-.3574131.1413794-.5698204.330409-.6372389.1889019-.0674265.3188546.0571996.3904079.3739125.0721586.3167504.1278298.7550154.1674658 1.314823.0401702.5507782.0479857 1.0164075.0227856 1.3968469-.0249121.3804572-.1312095.6034473-.3191994.6689513zm3.4842043-1.1181625.2237156-1.4931158.7159188 1.1674137 1.8285228-.6376014-1.2503253-1.7970364.8247587-2.498013-1.1851025.4261963-.2154975 1.4235145-.6381851-1.1179172-1.7971117.6395163 1.1379225 1.7196384-.872337 2.5910029z" fill="#000" fill-rule="nonzero" transform="matrix(.9998477 -.01745241 .01745241 .9998477 -.238262 .431204)"/><path d="m0 4.03983344v15.97557626l10.9192836 5.7229555-.1011259-16.79185935z" stroke="#000" stroke-linejoin="round" stroke-width=".693333"/><path d="m10.818158 8.946506 22.924064-8.946506" stroke="#000" stroke-linecap="round" stroke-linejoin="round" stroke-width=".693333"/><path d="m0 19.1559889 10.9192836-4.4182489v11.0006252l-10.9192836-5.7229555z" fill="#000"/></g></svg>