<svg height="34" viewBox="0 0 34 34" width="34" xmlns="http://www.w3.org/2000/svg" xmlns:xlink="http://www.w3.org/1999/xlink"><filter id="a"><feColorMatrix in="SourceGraphic" type="matrix" values="0 0 0 0 1.000000 0 0 0 0 1.000000 0 0 0 0 1.000000 0 0 0 1.000000 0"/></filter><g fill="none" fill-rule="evenodd"><rect height="33.5" rx="5.1" stroke="#fff" stroke-opacity=".570913" stroke-width=".5" width="33.5" x=".25" y=".25"/><g filter="url(#a)"><g transform="translate(5.25 8.5)"><path d="m10.1206282 11.0940937c.1977986-.071282.3883098-.1688813.5714379-.292804.1827916-.1239436.3319251-.2654946.4474832-.4246477.1153319-.1591673.1705026-.3238153.1658047-.4939259-.001916-.07113412-.0202273-.13235072-.054917-.18364874-.0346382-.05129481-.0808118-.08976062-.1385309-.11539807-.0823544.14243145-.1734016.25836031-.273143.34778652-.0998688.08941829-.2162384.15830629-.3490854.20666549-.2628121.0955495-.4553012.0737184-.57683565-.0654539-.12106609-.13914303-.18327654-.38635577-.18644463-.74162653-.00192011-.26874033.01476848-.51011147.04983421-.72412786.0351675-.21401005.11831559-.34524826.24929617-.39372386.1184239-.04386403.1942871-.02089282.2277302.06892237.0335519.08982198.0511775.22432614.0529318.40351594.0008457.08033015-.0044493.17069367-.015889.2710903.1066296-.0330297.1881133-.05992584.2444768-.08068683.1971337-.07267208.3619379-.18636274.4943695-.34107469.1321589-.15472895.1964617-.3279196.1932695-.51954944-.0034455-.22252155-.1139781-.33736295-.3317344-.34453356-.2176571-.00716271-.4799076.0464466-.7872245.16079928-.55700343.20667472-.98275235.5012773-1.2769805.88382436-.29561105.38246082-.4454205.84681824-.44711922 1.39321632-.00020517.3056589.0631432.5569972.19021013.7540252.12781525.1970747.32318973.3190953.58582353.3660432.26298221.0469696.58500686.002091.96523656-.1346879zm2.6481385-1.10265713-.1035484-2.97147926-1.1970172.44441235.0725535 2.96957214zm1.5424229-.65566557-.1357507-2.65505539c.0427021-.03411229.0888846-.06025785.1385539-.0784363.1334159-.04885878.2226957-.02756104.268016.06390381.0454534.09147282.072786.22980208.0820522.41499104.0063439.12447821.0035984.22523284-.0082989.30226017-.0118874.07702791-.0433256.14568342-.0943547.20596412-.0510727.06027809-.129879.109702-.2364342.14827083.0138844.27021558.2175001.33447272.6098694.19271285.1911622-.06919763.3586339-.16948164.5023539-.3008557.1434323-.13139129.2518206-.28353759.3252899-.45643141.0733483-.17290107.1042075-.35201687.0928229-.53733272-.0212595-.35540735-.1732213-.54975871-.4562137-.58307376-.2826724-.03329588-.6552156.03536456-1.1188036.20591098-.4058858.14888284-.855312.34090811-1.3489546.57603533l.1166722 2.94902423zm3.2782524-1.1361915-.106206-1.30940818.4780957-.17959153.1117243 1.30974465 1.1985383-.44680839-.2716599-2.99211912-1.1671515.44872219.0958281 1.27270807-.4763773.17969631-.0904625-1.27238091-1.17902.44799852.1962839 2.98752312zm3.958142-1.58461557-.0128753-.42127039-.7886717.29273819-.1044318-.93818998.5766657-.21596674-.0462931-.41191471-.5745507.21609234-.0885342-.85541277.7056134-.26788348-.043181-.40718361-1.899731.7212246.2922233 3.01790131zm1.3728051-.531497-.3355068-2.65062313c.0389796-.03411297.0819573-.0602766.1289395-.07849051.1027243-.03984587.1738782-.01669743.2135882.0694529.0398111.08615638.0706426.21712205.0925575.3929008.019041.1515423.029336.26359507.0307962.33615298.0014797.07255908-.0145569.14152125-.048148.20688424-.0336226.06536111-.0964081.11565888-.1883728.15089233.0045926.03637151.0138392.07255442.027745.10854904.0139211.03599553.02915.06990825.0456865.10173815l.5557286 1.16518932 1.1930242-.45292958-.8476341-.96683247c.1433354-.13495657.2467773-.29220452.3104655-.4717355.063547-.17953941.0815333-.3694.0542444-.56956466-.0347909-.25776667-.1195233-.43283111-.2542532-.52519667-.1344065-.09234623-.3036829-.12476511-.5081141-.09727368-.2044877.02748805-.4498369.09705866-.7364023.20869064-.3838886.1491729-.8069043.34147419-1.2697201.57686364l.3388476 2.94411046zm-12.578591 9.34607297c.4456366-.1462324.8177556-.3383643 1.1163069-.5763987.2974846-.2380982.4359136-.5126574.4165462-.823602-.0262203-.4375637-.3247561-.6043172-.8971166-.5003508.1730085-.0901086.3106898-.2043135.4130921-.3426119.1022198-.1383092.1494748-.2808384.1420042-.4275731-.0132712-.2675541-.1357837-.409459-.3677683-.4257287-.2318382-.0162609-.5427224.0416213-.9333679.173604-.4356998.1468271-.89398179.322586-1.37526319.5272518l.09148882 2.7935456c.48595614-.1203125.9506813-.2530226 1.39407777-.3981362zm-.1040285-1.6794031c-.0232717.0075193-.0483979.0112132-.0753761.0110852l-.0344979-.8548662c.0488517-.033577.0980118-.0584335.1474899-.0745688.1186973-.0387278.2016435-.0311899.2489457.02262.047374.0538141.0738288.1447012.0793901.272663.0065788.148327-.017802.2779777-.0732906.3889436-.0555442.1109626-.1530876.1890043-.2926611.2341232zm.0702488 1.2622625c-.0529343.0179054-.0969622.0240736-.1320683.0185055l-.0480545-1.0504161.0831501-.0327702c.1418882-.0485328.2404223-.0329177.2957795.0468562.0554864.0797818.0874252.2054377.0958564.3769703.0080339.1601072-.0071082.2961498-.0455629.4081195-.0384776.1119682-.1214955.1895474-.2491003.2327348zm3.2804456-.7368104c.3344954-.1160773.6158353-.2806736.8439206-.4937951.2273556-.2131667.3933358-.4606837.4982978-.7425289.1047087-.2818608.1434159-.5817296.1167678-.8995663-.0401143-.492718-.2011404-.8171269-.483328-.9732422-.2810588-.1560452-.6769423-.1422199-1.1896067.0413545-.5111153.1824036-.8943605.4551808-1.1495419.8183437-.256385.3630882-.3719341.7934319-.344622 1.2911567.0171735.299844.0986545.5412209.2445826.7241393.1466576.1829637.3465818.2956638.5994506.3380803.2531685.0424352.5414082.0078011.8640792-.103942zm.1303953-.2069786c-.1263023.0439758-.2172673-.0498195-.2724724-.2813597-.0547227-.2315101-.0946854-.5305916-.1196707-.8972309-.0244117-.369646-.0260061-.6744472-.0052513-.9144325.0209157-.2399754.0949254-.3825905.2218442-.4278569.1268331-.0452716.2140863.0384052.2621288.2510535.0484489.2126735.0858279.5069346.1124404.8828022.0269712.3698052.0322187.6824394.0152988.9378751-.0167266.2554477-.0880971.4051684-.2143178.4491492zm2.3393745-.7507599.1502079-1.0025121.4806843.7838283 1.2277121-.4281003-.8394971-1.2065713.5537619-1.67722324-.795705.28615794-.1446899.9557803-.4284921-.7505952-1.206622.4293859.7640272 1.1546046-.585707 1.7396587z" fill="#000" fill-rule="nonzero" transform="matrix(.9998477 -.01745241 .01745241 .9998477 -.159975 .28952)"/><path d="m0 2.71243674v10.72636796l7.33145723 3.8425235-.06789829-11.27443918z" stroke="#000" stroke-linejoin="round" stroke-width=".708333"/><path d="m7.263559 6.006889 15.391742-6.006889" stroke="#000" stroke-linecap="round" stroke-linejoin="round" stroke-width=".708333"/><path d="m0 12.8617699 7.33145723-2.96651358v7.38607188l-7.33145723-3.8425235z" fill="#000"/></g></g></g></svg>